inDegrees=no
num_controls=7
num_derivatives=13
num_iterations=92
num_multipliers=7
num_parameters=0
num_slacks=7
num_states=26
objective=0.337214
objective_accelerations=0.029736
objective_balance=0.000977
objective_effort=0.023510
objective_height=0.281317
objective_ligament=0.001674
solver_duration=938.690360
status=Solve_Succeeded
success=true
DataType=double
version=3
OpenSimVersion=4.5
endheader
time	/jointset/ground_pelvis/pelvis_tilt/value	/jointset/ground_pelvis/pelvis_tx/value	/jointset/ground_pelvis/pelvis_ty/value	/jointset/hip_r/hip_flexion_r/value	/jointset/hip_r/hip_adduction_r/value	/jointset/hip_r/hip_rotation_r/value	/jointset/back/lumbar_extension/value	/jointset/patellofemoral_r/patellar_flexion_r/value	/jointset/knee_r/knee_flexion_r/value	/jointset/knee_r/knee_adduction_r/value	/jointset/knee_r/knee_rotation_r/value	/jointset/ankle_r/ankle_angle_r/value	/jointset/subtalar_r/subtalar_angle_r/value	/jointset/ground_pelvis/pelvis_tilt/speed	/jointset/ground_pelvis/pelvis_tx/speed	/jointset/ground_pelvis/pelvis_ty/speed	/jointset/hip_r/hip_flexion_r/speed	/jointset/hip_r/hip_adduction_r/speed	/jointset/hip_r/hip_rotation_r/speed	/jointset/back/lumbar_extension/speed	/jointset/patellofemoral_r/patellar_flexion_r/speed	/jointset/knee_r/knee_flexion_r/speed	/jointset/knee_r/knee_adduction_r/speed	/jointset/knee_r/knee_rotation_r/speed	/jointset/ankle_r/ankle_angle_r/speed	/jointset/subtalar_r/subtalar_angle_r/speed	/forceset/tau_hip_flexion_r	/forceset/tau_hip_adduction_r	/forceset/tau_hip_rotation_r	/forceset/tau_knee_flexion_r	/forceset/tau_ankle_angle_r	/forceset/tau_subtalar_angle_r	/forceset/tau_lumbar_extension	lambda_cid13_p0	lambda_cid14_p0	lambda_cid14_p1	lambda_cid14_p2	lambda_cid14_p3	lambda_cid14_p4	lambda_cid14_p5	/jointset/ground_pelvis/pelvis_tilt/accel	/jointset/ground_pelvis/pelvis_tx/accel	/jointset/ground_pelvis/pelvis_ty/accel	/jointset/hip_r/hip_flexion_r/accel	/jointset/hip_r/hip_adduction_r/accel	/jointset/hip_r/hip_rotation_r/accel	/jointset/back/lumbar_extension/accel	/jointset/patellofemoral_r/patellar_flexion_r/accel	/jointset/knee_r/knee_flexion_r/accel	/jointset/knee_r/knee_adduction_r/accel	/jointset/knee_r/knee_rotation_r/accel	/jointset/ankle_r/ankle_angle_r/accel	/jointset/subtalar_r/subtalar_angle_r/accel	gamma_cid13_p0	gamma_cid14_p0	gamma_cid14_p1	gamma_cid14_p2	gamma_cid14_p3	gamma_cid14_p4	gamma_cid14_p5
0	-0.01616760010266545	0.1366006548458544	0.9316128113771981	0.1934211968871041	-0.2467784123433606	-0.2303615267650284	-0.2903787966825928	0.2311786273363386	0.2311786273363406	0.1737049836324772	0.1735801748796535	0.089344008118978	0.040700279088808	0	0	0	0	0	0	0	0	0	0	0	0	0	0.09503509872111081	-0.06980741495875638	0.00971042155680028	-0.247392730473795	0.127781795356724	-0.1313631437396515	-0.01605108336891615	-30.08342733087407	-7.04531693215983	-52.44928088833505	2.118448669877844	-4.592619988688138	-616.2816731296267	27.44905120805105	-1.35410607167058	-1.506550762916465	-0.6931116047014463	8.304450325205668	0.03035794594088691	2.481781059456563	-5.827024779057787	8.902948310482159	8.902948310482245	-2.237307986199251	0.08024059206091216	2.614033504011633	0.7098214213930294	7.006199356026822e-08	3.956455946492152e-08	-5.091759768623833e-07	2.236611741745734e-07	2.317349941379835e-08	1.313262386693486e-07	-3.429369384049427e-07
0.01	-0.01623075249451723	0.136527257982306	0.9315791265972725	0.1938248513386026	-0.2467756732487597	-0.2302352097755133	-0.2906713449369082	0.2316152045083586	0.2316152045083485	0.173592982778096	0.1735788560426424	0.08947381435234038	0.04073699991059881	-0.01261262781049744	-0.01450590812029452	-0.006721686462460947	0.08026482569967143	0.0004944308423299763	0.02506897546173986	-0.05816820515363347	0.08692920013922879	0.08692920013922902	-0.02218828445239093	-0.0001637441487069084	0.02595959364569476	0.007281742880803422	0.09559158855516615	-0.08704329216455017	0.009381199457642993	-0.252806560746796	0.1339535190761244	-0.1195287912229441	-0.01544924307199981	-30.08703706091361	-4.51531413815127	-46.7335597432162	1.055199314995229	-8.044075710814136	-617.5928689766257	39.94912588396613	-1.212163596552275	-1.396586513545583	-0.6593804733623227	7.817590670305759	0.05094237307376828	2.490343989825177	-5.76050152712819	8.529956713720489	8.529956713720422	-2.177865851586495	-0.04963011009022877	2.5866873318239	0.7279334318153179	8.533032406150929e-08	3.168447571502461e-08	-6.05280635709413e-07	2.616875987370258e-07	4.269840861606432e-08	2.823079520678652e-08	-4.132286987392174e-07
0.02	-0.01641949565663533	0.1363140069021626	0.9314786882914533	0.1950171724427031	-0.2467695985018006	-0.2298640253913284	-0.2915353318714797	0.232909483851372	0.2329094838513723	0.1732654436438248	0.1735789101258328	0.0898631695295538	0.0408446547032759	-0.02511815405351532	-0.02797084331899129	-0.01335070517870659	0.1577333305176458	0.0006671304724461677	0.04897347893517827	-0.1142877360517493	0.1715404342015455	0.1715404342015454	-0.04310765597788095	0.0002745840324325395	0.05190978877041174	0.01418679417726036	0.09614807838934065	-0.1042791693703358	0.009051977358644778	-0.2582203910197594	0.1401252427955447	-0.1076944387062236	-0.01484740277499731	-30.09767444764866	-1.91598588605256	-41.02703605831695	0.01778990748031848	-11.46551423149493	-617.7872781305366	52.20016976811738	-1.332685758174635	-1.298356178596941	-0.6745780554583833	7.745186148866261	-0.03398829650186781	2.248886661796271	-5.417289927954251	8.439355095099732	8.439355095099703	-1.983525400819072	0.2006550580301805	2.612153799816044	0.6344831045237257	1.005986545627503e-07	2.380439196512769e-08	-7.013852945564426e-07	2.997140232994781e-07	6.22233178183303e-08	-7.486464825577557e-08	-4.835204590734923e-07
0.03	-0.01673259933911013	0.1359700637725447	0.9313122453609055	0.1969715716113914	-0.2467633688885381	-0.2292598971899528	-0.2929493866956073	0.2350382931571951	0.2350382931572003	0.1727351519845622	0.1735864508183272	0.09051034209336334	0.04101909737079906	-0.0374385836108963	-0.04076855373344185	-0.01993447728290574	0.2327852148143641	0.0005486959316640501	0.07176037454037865	-0.1681264665549053	0.2538140569694112	0.2538140569694106	-0.06275622577877357	0.001201270389286358	0.07736576100628434	0.02062504034901391	0.09010840265740019	-0.1024091242605422	0.01009482746079128	-0.2510170995481295	0.1297657130634485	-0.1044995237671043	-0.009977420709482805	-30.11510469073015	-5.110423001087315	-40.11599195653236	-0.2220514281991872	-9.678538102791681	-618.3617307831254	53.01180267291488	-1.172115231866069	-1.263081618724144	-0.6497816301789124	7.33100058028524	-0.00532636661862276	2.279891451405967	-5.307650278675668	8.060240186939314	8.060240186939206	-1.926436116462585	0.03389702560095065	2.488490014807718	0.6369155689605165	1.118794900059928e-07	2.063483929319396e-08	-7.739904275005587e-07	3.165660475349168e-07	7.331140406653344e-08	-1.444554088942924e-07	-5.223011093290845e-07
0.04	-0.0171669860526255	0.1354996229096111	0.9310800637408603	0.1996656518250946	-0.2467592346874348	-0.2284306399442203	-0.2948899259582006	0.2379776135545719	0.2379776135545725	0.1720141919579391	0.1736023026945784	0.09140730859540036	0.04125560653913161	-0.04937476026212921	-0.0532703899821044	-0.02649844307822599	0.3056695395194984	0.0002480480407981478	0.09399928780654415	-0.2195846237452369	0.3336426525096487	0.3336426525096469	-0.0812413294491923	0.001936820789658586	0.1018685764155522	0.02660009433914063	0.08406872692549375	-0.1005390791507651	0.01113767756284251	-0.2438138080764735	0.1194061833313523	-0.1013046088280032	-0.005107438643936358	-30.13845970966266	-8.241031797538602	-39.21234767556815	-0.4394932101114138	-7.873346757543433	-617.9166384142434	53.59942563824673	-1.25583517694499	-1.239181345439367	-0.6706167936826002	7.311674230549473	-0.07043096651862292	2.139290193989297	-4.941175265389348	7.950349649574066	7.950349649573902	-1.750832174724297	0.1624278667338547	2.421522434495053	0.5418446681983529	1.230781090562868e-07	1.756241097338318e-08	-8.461110341373982e-07	3.329814861966025e-07	8.422553520228168e-08	-2.133553513302517e-07	-5.604320459748071e-07
0.05	-0.01771924106447966	0.1349058427652663	0.9307821395058594	0.2030783671946478	-0.2467587869601154	-0.2273825162712366	-0.2973334822970204	0.2417037125396524	0.2417037125396519	0.1711135998830721	0.1736252361779919	0.0925451182032369	0.04155001721866204	-0.06101840828070023	-0.06541494126569421	-0.03309654397031422	0.3765198243358422	-0.000155385640989729	0.1155198870694056	-0.2688021771285478	0.4112043905347783	0.4112043905347775	-0.09875098893468701	0.002608765230282862	0.1255862067115803	0.03226163410850141	0.07944366598438116	-0.09643274375074937	0.01185874779351245	-0.2401790067428392	0.1147282881668548	-0.1009455746653003	-0.00125301304410449	-30.16680539165865	-9.69182467547077	-39.34904102409722	-0.3736124693939423	-7.371203056760801	-617.6842930236551	52.19031772400916	-1.109943947576258	-1.191470443432034	-0.655970972054987	6.918654897511071	-0.02488349432327796	2.14268886903678	-4.863375341285316	7.603148077037564	7.603148077037761	-1.732218393441462	0.01348321650525107	2.330831608155247	0.5751537777373197	1.254962226944073e-07	1.595425984666182e-08	-8.354103961709662e-07	3.563818800525364e-07	8.684436957367663e-08	-2.563610419489297e-07	-5.755086009908734e-07
